<!-- @see https://app.paper.design/file/01M1QTYBYHXP4H1BXFQ79N18AP/2-0/1GB-0 -->
<svg xmlns="http://www.w3.org/2000/svg" viewBox="0 0 200 160" fill="none" stroke="#302417" stroke-width="2" stroke-linejoin="round"><path d="M13 110 96 67 189 112 105 155Z" fill="#77734b"/><path d="M13 110v6l92 44 84-42v-6l-84 43Z" fill="#484731"/><path d="M21 112 91 77 171 116l-69 34Z" fill="#a48d5d"/><path d="m52 101 51-24c9-3 17 12 9 16l-51 24Z" fill="#6d5131"/><ellipse cx="57" cy="109" rx="7" ry="10" transform="rotate(-27 57 109)" fill="#c4a472"/><path d="m62 104 47-23" stroke="#967046" stroke-width="1.5"/><path d="m71 110 51-24c9-3 17 12 9 16l-51 24Z" fill="#6d5131"/><ellipse cx="76" cy="118" rx="7" ry="10" transform="rotate(-27 76 118)" fill="#c4a472"/><path d="m81 113 47-23" stroke="#967046" stroke-width="1.5"/><path d="m90 119 51-24c9-3 17 12 9 16l-51 24Z" fill="#6d5131"/><ellipse cx="95" cy="127" rx="7" ry="10" transform="rotate(-27 95 127)" fill="#c4a472"/><path d="m100 122 47-23" stroke="#967046" stroke-width="1.5"/><path d="m64 92 51-24c9-3 17 12 9 16l-51 24Z" fill="#6d5131"/><ellipse cx="69" cy="100" rx="7" ry="10" transform="rotate(-27 69 100)" fill="#c4a472"/><path d="m74 95 47-23" stroke="#967046" stroke-width="1.5"/><path d="m83 101 51-24c9-3 17 12 9 16l-51 24Z" fill="#6d5131"/><ellipse cx="88" cy="109" rx="7" ry="10" transform="rotate(-27 88 109)" fill="#c4a472"/><path d="m93 104 47-23" stroke="#967046" stroke-width="1.5"/><path d="m75 84 51-24c9-3 17 12 9 16l-51 24Z" fill="#6d5131"/><ellipse cx="80" cy="92" rx="7" ry="10" transform="rotate(-27 80 92)" fill="#c4a472"/><path d="m85 87 47-23" stroke="#967046" stroke-width="1.5"/><path d="m42 93V67m111 44V80m-119 34V90m110 53v-26" stroke="#4e3927" stroke-width="5"/><path d="m146 70 20-37" stroke="#ae8b58" stroke-width="5"/><path d="m155 51 9-16 17 11-8 14Z" fill="#a6aba2"/><path d="m29 95 17-9v-32l-17 9Z" fill="#6d7a49"/><path d="m25 64 21-32 15 28-18 9Z" fill="#526e38"/></svg>